<svg width="720" height="353" viewBox="0 0 720 353" fill="none" xmlns="http://www.w3.org/2000/svg">
<path d="M696.589 105.673C699.586 120.021 693.162 135.721 678.764 151.87C664.374 168.009 642.089 184.513 613.57 200.429C556.536 232.259 474.676 261.683 381.509 281.14C288.342 300.598 201.548 306.397 136.543 300.055C104.037 296.883 77.009 290.678 57.3626 281.647C37.7052 272.612 25.5341 260.794 22.5375 246.446C20.1836 235.176 23.6403 223.074 32.2152 210.567C40.7907 198.059 54.4572 185.19 72.4248 172.424C75.7048 170.094 79.1276 167.767 82.6883 165.447C139.442 128.468 231.143 93.2154 337.618 70.9785C430.785 51.5209 517.579 45.7219 582.584 52.0642C615.09 55.2357 642.118 61.4404 661.764 70.4713C681.422 79.5072 693.593 91.3243 696.589 105.673Z" stroke="#E4C7A9"/>
<path d="M664.212 18.8608C664.329 18.2412 665.602 18.2412 665.719 18.8608C666.862 24.9463 669.486 35.2289 674.771 40.5135C680.056 45.7982 690.338 48.4224 696.424 49.5656C697.043 49.682 697.043 50.9556 696.424 51.072C690.338 52.2153 680.056 54.8394 674.771 60.1241C669.486 65.4088 666.862 75.6913 665.719 81.7768C665.602 82.3964 664.329 82.3964 664.212 81.7769C663.069 75.6913 660.445 65.4088 655.16 60.1241C649.876 54.8394 639.593 52.2153 633.508 51.072C632.888 50.9556 632.888 49.682 633.508 49.5656C639.593 48.4224 649.876 45.7982 655.16 40.5135C660.445 35.2289 663.069 24.9463 664.212 18.8608Z" fill="url(#paint0_linear_12_146)"/>
<defs>
<linearGradient id="paint0_linear_12_146" x1="693.487" y1="18.3961" x2="637.491" y2="82.2415" gradientUnits="userSpaceOnUse">
<stop stop-color="#FB7822"/>
<stop offset="1" stop-color="#DD2E03"/>
</linearGradient>
</defs>
</svg>
